<svg xmlns="http://www.w3.org/2000/svg" width="18.355" height="14.651" viewBox="0 0 18.355 14.651">
  <path id="Trazado_23" data-name="Trazado 23" d="M17.627,29.29H.728A.728.728,0,0,0,0,30.018V43.212a.728.728,0,0,0,.728.728h16.9a.728.728,0,0,0,.728-.728V30.018A.729.729,0,0,0,17.627,29.29ZM3.577,39.2H2.134v.972H3.427v.3H2.134v1.186H1.818V38.893H3.577v.3ZM6.3,40.521a1.065,1.065,0,0,1-1.158,1.154A1.069,1.069,0,0,1,3.98,40.521V38.893H4.3v1.628a.781.781,0,0,0,.85.85.775.775,0,0,0,.842-.85V38.893H6.3v1.628Zm2.3,1.138H7.079V38.893h.316v2.466H8.608Zm2.043,0H9.122V38.893h.316v2.466h1.213v.3Zm2.925,0h-.7V40.584H11.727v1.075h-.7V38.893h.7v1.138h1.146V38.893h.7Zm1.716,0H14.13V40.066h.7V41.1h.5a.748.748,0,0,0,.739-.818.767.767,0,0,0-.771-.826H14.13v-.561h1.19a1.36,1.36,0,0,1,1.47,1.383A1.375,1.375,0,0,1,15.292,41.659ZM16.9,37.425H1.457V30.747H16.9Z" transform="translate(0 -29.29)" fill="#fff"/>
</svg>
